<svg width="232" height="232" viewBox="0 0 232 232" fill="none" xmlns="http://www.w3.org/2000/svg">
<g clip-path="url(#clip0_1_205)">
<path d="M231.039 -0.00012207H0V231.038H231.039V-0.00012207Z" fill="white"/>
<path d="M19.9037 14.4398H14.4399V19.9036H19.9037V14.4398Z" fill="black"/>
<path d="M25.3674 14.4398H19.9037V19.9036H25.3674V14.4398Z" fill="black"/>
<path d="M30.8312 14.4398H25.3674V19.9036H30.8312V14.4398Z" fill="black"/>
<path d="M36.2949 14.4398H30.8312V19.9036H36.2949V14.4398Z" fill="black"/>
<path d="M41.7587 14.4398H36.2949V19.9036H41.7587V14.4398Z" fill="black"/>
<path d="M47.2224 14.4398H41.7587V19.9036H47.2224V14.4398Z" fill="black"/>
<path d="M52.6862 14.4398H47.2224V19.9036H52.6862V14.4398Z" fill="black"/>
<path d="M63.6137 14.4398H58.1499V19.9036H63.6137V14.4398Z" fill="black"/>
<path d="M69.0774 14.4398H63.6137V19.9036H69.0774V14.4398Z" fill="black"/>
<path d="M85.4687 14.4398H80.0049V19.9036H85.4687V14.4398Z" fill="black"/>
<path d="M90.9324 14.4398H85.4687V19.9036H90.9324V14.4398Z" fill="black"/>
<path d="M101.86 14.4398H96.3962V19.9036H101.86V14.4398Z" fill="black"/>
<path d="M107.324 14.4398H101.86V19.9036H107.324V14.4398Z" fill="black"/>
<path d="M112.787 14.4398H107.324V19.9036H112.787V14.4398Z" fill="black"/>
<path d="M123.715 14.4398H118.251V19.9036H123.715V14.4398Z" fill="black"/>
<path d="M134.642 14.4398H129.179V19.9036H134.642V14.4398Z" fill="black"/>
<path d="M145.57 14.4398H140.106V19.9036H145.57V14.4398Z" fill="black"/>
<path d="M156.497 14.4398H151.034V19.9036H156.497V14.4398Z" fill="black"/>
<path d="M172.889 14.4398H167.425V19.9036H172.889V14.4398Z" fill="black"/>
<path d="M183.816 14.4398H178.352V19.9036H183.816V14.4398Z" fill="black"/>
<path d="M189.28 14.4398H183.816V19.9036H189.28V14.4398Z" fill="black"/>
<path d="M194.744 14.4398H189.28V19.9036H194.744V14.4398Z" fill="black"/>
<path d="M200.207 14.4398H194.744V19.9036H200.207V14.4398Z" fill="black"/>
<path d="M205.671 14.4398H200.207V19.9036H205.671V14.4398Z" fill="black"/>
<path d="M211.135 14.4398H205.671V19.9036H211.135V14.4398Z" fill="black"/>
<path d="M216.599 14.4398H211.135V19.9036H216.599V14.4398Z" fill="black"/>
<path d="M19.9037 19.9036H14.4399V25.3673H19.9037V19.9036Z" fill="black"/>
<path d="M52.6862 19.9036H47.2224V25.3673H52.6862V19.9036Z" fill="black"/>
<path d="M74.5412 19.9036H69.0774V25.3673H74.5412V19.9036Z" fill="black"/>
<path d="M85.4687 19.9036H80.0049V25.3673H85.4687V19.9036Z" fill="black"/>
<path d="M101.86 19.9036H96.3962V25.3673H101.86V19.9036Z" fill="black"/>
<path d="M107.324 19.9036H101.86V25.3673H107.324V19.9036Z" fill="black"/>
<path d="M123.715 19.9036H118.251V25.3673H123.715V19.9036Z" fill="black"/>
<path d="M134.642 19.9036H129.179V25.3673H134.642V19.9036Z" fill="black"/>
<path d="M145.57 19.9036H140.106V25.3673H145.57V19.9036Z" fill="black"/>
<path d="M151.034 19.9036H145.57V25.3673H151.034V19.9036Z" fill="black"/>
<path d="M156.497 19.9036H151.034V25.3673H156.497V19.9036Z" fill="black"/>
<path d="M172.889 19.9036H167.425V25.3673H172.889V19.9036Z" fill="black"/>
<path d="M183.816 19.9036H178.352V25.3673H183.816V19.9036Z" fill="black"/>
<path d="M216.599 19.9036H211.135V25.3673H216.599V19.9036Z" fill="black"/>
<path d="M19.9037 25.3673H14.4399V30.8311H19.9037V25.3673Z" fill="black"/>
<path d="M30.8312 25.3673H25.3674V30.8311H30.8312V25.3673Z" fill="black"/>
<path d="M36.2949 25.3673H30.8312V30.8311H36.2949V25.3673Z" fill="black"/>
<path d="M41.7587 25.3673H36.2949V30.8311H41.7587V25.3673Z" fill="black"/>
<path d="M52.6862 25.3673H47.2224V30.8311H52.6862V25.3673Z" fill="black"/>
<path d="M80.0049 25.3673H74.5412V30.8311H80.0049L80.0049 25.3673Z" fill="black"/>
<path d="M85.4687 25.3673H80.0049L80.0049 30.8311H85.4687V25.3673Z" fill="black"/>
<path d="M90.9324 25.3673H85.4687V30.8311H90.9324V25.3673Z" fill="black"/>
<path d="M96.3962 25.3673H90.9324V30.8311H96.3962L96.3962 25.3673Z" fill="black"/>
<path d="M101.86 25.3673H96.3962L96.3962 30.8311H101.86V25.3673Z" fill="black"/>
<path d="M112.787 25.3673H107.324V30.8311H112.787V25.3673Z" fill="black"/>
<path d="M140.106 25.3673H134.642V30.8311H140.106V25.3673Z" fill="black"/>
<path d="M145.57 25.3673H140.106V30.8311H145.57V25.3673Z" fill="black"/>
<path d="M161.961 25.3673H156.497V30.8311H161.961V25.3673Z" fill="black"/>
<path d="M167.425 25.3673H161.961V30.8311H167.425V25.3673Z" fill="black"/>
<path d="M183.816 25.3673H178.352V30.8311H183.816V25.3673Z" fill="black"/>
<path d="M194.744 25.3673H189.28V30.8311H194.744V25.3673Z" fill="black"/>
<path d="M200.207 25.3673H194.744V30.8311H200.207V25.3673Z" fill="black"/>
<path d="M205.671 25.3673H200.207V30.8311H205.671V25.3673Z" fill="black"/>
<path d="M216.599 25.3673H211.135V30.8311H216.599V25.3673Z" fill="black"/>
<path d="M19.9037 30.8311H14.4399V36.2948H19.9037V30.8311Z" fill="black"/>
<path d="M30.8312 30.8311H25.3674V36.2948H30.8312V30.8311Z" fill="black"/>
<path d="M36.2949 30.8311H30.8312V36.2948H36.2949V30.8311Z" fill="black"/>
<path d="M41.7587 30.8311H36.2949V36.2948H41.7587V30.8311Z" fill="black"/>
<path d="M52.6862 30.8311H47.2224V36.2948H52.6862V30.8311Z" fill="black"/>
<path d="M69.0774 30.8311H63.6137V36.2948H69.0774V30.8311Z" fill="black"/>
<path d="M74.5412 30.8311H69.0774V36.2948H74.5412V30.8311Z" fill="black"/>
<path d="M90.9324 30.8311H85.4687L85.4687 36.2948H90.9324V30.8311Z" fill="black"/>
<path d="M101.86 30.8311H96.3962L96.3962 36.2948H101.86V30.8311Z" fill="black"/>
<path d="M107.324 30.8311H101.86V36.2948H107.324V30.8311Z" fill="black"/>
<path d="M123.715 30.8311H118.251V36.2948H123.715V30.8311Z" fill="black"/>
<path d="M134.642 30.8311H129.179V36.2948H134.642V30.8311Z" fill="black"/>
<path d="M140.106 30.8311H134.642V36.2948H140.106V30.8311Z" fill="black"/>
<path d="M161.961 30.8311H156.497V36.2948H161.961V30.8311Z" fill="black"/>
<path d="M172.889 30.8311H167.425V36.2948H172.889V30.8311Z" fill="black"/>
<path d="M183.816 30.8311H178.352V36.2948H183.816V30.8311Z" fill="black"/>
<path d="M194.744 30.8311H189.28V36.2948H194.744V30.8311Z" fill="black"/>
<path d="M200.207 30.8311H194.744V36.2948H200.207V30.8311Z" fill="black"/>
<path d="M205.671 30.8311H200.207V36.2948H205.671V30.8311Z" fill="black"/>
<path d="M216.599 30.8311H211.135V36.2948H216.599V30.8311Z" fill="black"/>
<path d="M19.9037 36.2948H14.4399V41.7586H19.9037V36.2948Z" fill="black"/>
<path d="M30.8312 36.2948H25.3674V41.7586H30.8312V36.2948Z" fill="black"/>
<path d="M36.2949 36.2948H30.8312V41.7586H36.2949V36.2948Z" fill="black"/>
<path d="M41.7587 36.2948H36.2949V41.7586H41.7587V36.2948Z" fill="black"/>
<path d="M52.6862 36.2948H47.2224V41.7586H52.6862V36.2948Z" fill="black"/>
<path d="M63.6137 36.2948H58.1499V41.7586H63.6137V36.2948Z" fill="black"/>
<path d="M85.4687 36.2948H80.0049V41.7586H85.4687L85.4687 36.2948Z" fill="black"/>
<path d="M96.3962 36.2948H90.9324V41.7586H96.3962L96.3962 36.2948Z" fill="black"/>
<path d="M101.86 36.2948H96.3962L96.3962 41.7586H101.86V36.2948Z" fill="black"/>
<path d="M118.251 36.2948H112.787V41.7586H118.251V36.2948Z" fill="black"/>
<path d="M129.179 36.2948H123.715V41.7586H129.179V36.2948Z" fill="black"/>
<path d="M140.106 36.2948H134.642V41.7586H140.106V36.2948Z" fill="black"/>
<path d="M156.497 36.2948H151.034V41.7586H156.497V36.2948Z" fill="black"/>
<path d="M161.961 36.2948H156.497V41.7586H161.961V36.2948Z" fill="black"/>
<path d="M172.889 36.2948H167.425V41.7586H172.889V36.2948Z" fill="black"/>
<path d="M183.816 36.2948H178.352V41.7586H183.816V36.2948Z" fill="black"/>
<path d="M194.744 36.2948H189.28V41.7586H194.744V36.2948Z" fill="black"/>
<path d="M200.207 36.2948H194.744V41.7586H200.207V36.2948Z" fill="black"/>
<path d="M205.671 36.2948H200.207V41.7586H205.671V36.2948Z" fill="black"/>
<path d="M216.599 36.2948H211.135V41.7586H216.599V36.2948Z" fill="black"/>
<path d="M19.9037 41.7586H14.4399V47.2223H19.9037V41.7586Z" fill="black"/>
<path d="M52.6862 41.7586H47.2224V47.2223H52.6862V41.7586Z" fill="black"/>
<path d="M74.5412 41.7586H69.0774V47.2223H74.5412V41.7586Z" fill="black"/>
<path d="M80.0049 41.7586H74.5412V47.2223H80.0049L80.0049 41.7586Z" fill="black"/>
<path d="M96.3962 41.7586H90.9324V47.2223H96.3962V41.7586Z" fill="black"/>
<path d="M101.86 41.7586H96.3962V47.2223H101.86V41.7586Z" fill="black"/>
<path d="M107.324 41.7586H101.86V47.2223H107.324V41.7586Z" fill="black"/>
<path d="M129.179 41.7586H123.715V47.2223H129.179V41.7586Z" fill="black"/>
<path d="M140.106 41.7586H134.642V47.2223H140.106V41.7586Z" fill="black"/>
<path d="M145.57 41.7586H140.106V47.2223H145.57V41.7586Z" fill="black"/>
<path d="M151.034 41.7586H145.57V47.2223H151.034V41.7586Z" fill="black"/>
<path d="M156.497 41.7586H151.034V47.2223H156.497V41.7586Z" fill="black"/>
<path d="M172.889 41.7586H167.425V47.2223H172.889V41.7586Z" fill="black"/>
<path d="M183.816 41.7586H178.352V47.2223H183.816V41.7586Z" fill="black"/>
<path d="M216.599 41.7586H211.135V47.2223H216.599V41.7586Z" fill="black"/>
<path d="M19.9037 47.2223H14.4399V52.6861H19.9037V47.2223Z" fill="black"/>
<path d="M25.3674 47.2223H19.9037V52.6861H25.3674V47.2223Z" fill="black"/>
<path d="M30.8312 47.2223H25.3674V52.6861H30.8312V47.2223Z" fill="black"/>
<path d="M36.2949 47.2223H30.8312V52.6861H36.2949V47.2223Z" fill="black"/>
<path d="M41.7587 47.2223H36.2949V52.6861H41.7587V47.2223Z" fill="black"/>
<path d="M47.2224 47.2223H41.7587V52.6861H47.2224V47.2223Z" fill="black"/>
<path d="M52.6862 47.2223H47.2224V52.6861H52.6862V47.2223Z" fill="black"/>
<path d="M63.6137 47.2223H58.1499V52.6861H63.6137V47.2223Z" fill="black"/>
<path d="M74.5412 47.2223H69.0774V52.6861H74.5412V47.2223Z" fill="black"/>
<path d="M85.4687 47.2223H80.0049L80.0049 52.6861H85.4687V47.2223Z" fill="black"/>
<path d="M96.3962 47.2223H90.9324V52.6861H96.3962V47.2223Z" fill="black"/>
<path d="M107.324 47.2223H101.86L101.86 52.6861H107.324V47.2223Z" fill="black"/>
<path d="M118.251 47.2223H112.787V52.6861H118.251V47.2223Z" fill="black"/>
<path d="M129.179 47.2223H123.715V52.6861H129.179V47.2223Z" fill="black"/>
<path d="M140.106 47.2223H134.642V52.6861H140.106V47.2223Z" fill="black"/>
<path d="M151.034 47.2223H145.57V52.6861H151.034V47.2223Z" fill="black"/>
<path d="M161.961 47.2223H156.497V52.6861H161.961V47.2223Z" fill="black"/>
<path d="M172.889 47.2223H167.425V52.6861H172.889V47.2223Z" fill="black"/>
<path d="M183.816 47.2223H178.352V52.6861H183.816V47.2223Z" fill="black"/>
<path d="M189.28 47.2223H183.816V52.6861H189.28V47.2223Z" fill="black"/>
<path d="M194.744 47.2223H189.28V52.6861H194.744V47.2223Z" fill="black"/>
<path d="M200.207 47.2223H194.744V52.6861H200.207V47.2223Z" fill="black"/>
<path d="M205.671 47.2223H200.207V52.6861H205.671V47.2223Z" fill="black"/>
<path d="M211.135 47.2223H205.671V52.6861H211.135V47.2223Z" fill="black"/>
<path d="M216.599 47.2223H211.135V52.6861H216.599V47.2223Z" fill="black"/>
<path d="M63.6137 52.6861H58.1499V58.1498H63.6137V52.6861Z" fill="black"/>
<path d="M85.4687 52.6861H80.0049V58.1498H85.4687V52.6861Z" fill="black"/>
<path d="M107.324 52.6861H101.86V58.1498H107.324V52.6861Z" fill="black"/>
<path d="M129.179 52.6861H123.715V58.1498H129.179V52.6861Z" fill="black"/>
<path d="M134.642 52.6861H129.179V58.1498H134.642V52.6861Z" fill="black"/>
<path d="M140.106 52.6861H134.642V58.1498H140.106V52.6861Z" fill="black"/>
<path d="M151.034 52.6861H145.57V58.1498H151.034V52.6861Z" fill="black"/>
<path d="M156.497 52.6861H151.034V58.1498H156.497V52.6861Z" fill="black"/>
<path d="M167.425 52.6861H161.961V58.1498H167.425V52.6861Z" fill="black"/>
<path d="M19.9037 58.1498H14.4399V63.6136H19.9037V58.1498Z" fill="black"/>
<path d="M36.2949 58.1498H30.8312V63.6136H36.2949V58.1498Z" fill="black"/>
<path d="M41.7587 58.1498H36.2949V63.6136H41.7587V58.1498Z" fill="black"/>
<path d="M47.2224 58.1498H41.7587V63.6136H47.2224V58.1498Z" fill="black"/>
<path d="M52.6862 58.1498H47.2224V63.6136H52.6862V58.1498Z" fill="black"/>
<path d="M58.1499 58.1498H52.6862V63.6136H58.1499V58.1498Z" fill="black"/>
<path d="M63.6137 58.1498H58.1499V63.6136H63.6137V58.1498Z" fill="black"/>
<path d="M69.0774 58.1498H63.6137V63.6136H69.0774V58.1498Z" fill="black"/>
<path d="M74.5412 58.1498H69.0774V63.6136H74.5412V58.1498Z" fill="black"/>
<path d="M85.4687 58.1498H80.0049V63.6136H85.4687V58.1498Z" fill="black"/>
<path d="M90.9324 58.1498H85.4687V63.6136H90.9324V58.1498Z" fill="black"/>
<path d="M96.3962 58.1498H90.9324V63.6136H96.3962V58.1498Z" fill="black"/>
<path d="M112.787 58.1498H107.324V63.6136H112.787V58.1498Z" fill="black"/>
<path d="M118.251 58.1498H112.787V63.6136H118.251V58.1498Z" fill="black"/>
<path d="M123.715 58.1498H118.251V63.6136H123.715V58.1498Z" fill="black"/>
<path d="M129.179 58.1498H123.715V63.6136H129.179V58.1498Z" fill="black"/>
<path d="M140.106 58.1498H134.642V63.6136H140.106V58.1498Z" fill="black"/>
<path d="M145.57 58.1498H140.106V63.6136H145.57V58.1498Z" fill="black"/>
<path d="M156.497 58.1498H151.034V63.6136H156.497V58.1498Z" fill="black"/>
<path d="M167.425 58.1498H161.961V63.6136H167.425V58.1498Z" fill="black"/>
<path d="M172.889 58.1498H167.425V63.6136H172.889V58.1498Z" fill="black"/>
<path d="M178.352 58.1498H172.889V63.6136H178.352V58.1498Z" fill="black"/>
<path d="M183.816 58.1498H178.352V63.6136H183.816V58.1498Z" fill="black"/>
<path d="M194.744 58.1498H189.28V63.6136H194.744V58.1498Z" fill="black"/>
<path d="M216.599 58.1498H211.135V63.6136H216.599V58.1498Z" fill="black"/>
<path d="M25.3674 63.6136H19.9037V69.0773H25.3674V63.6136Z" fill="black"/>
<path d="M47.2224 63.6136H41.7587V69.0773H47.2224V63.6136Z" fill="black"/>
<path d="M74.5412 63.6136H69.0774V69.0773H74.5412V63.6136Z" fill="black"/>
<path d="M80.0049 63.6136H74.5412V69.0773H80.0049L80.0049 63.6136Z" fill="black"/>
<path d="M85.4687 63.6136H80.0049L80.0049 69.0773H85.4687V63.6136Z" fill="black"/>
<path d="M90.9324 63.6136H85.4687V69.0773H90.9324V63.6136Z" fill="black"/>
<path d="M96.3962 63.6136H90.9324V69.0773H96.3962V63.6136Z" fill="black"/>
<path d="M101.86 63.6136H96.3962V69.0773H101.86V63.6136Z" fill="black"/>
<path d="M123.715 63.6136H118.251V69.0773H123.715V63.6136Z" fill="black"/>
<path d="M129.179 63.6136H123.715V69.0773H129.179V63.6136Z" fill="black"/>
<path d="M140.106 63.6136H134.642V69.0773H140.106V63.6136Z" fill="black"/>
<path d="M145.57 63.6136H140.106V69.0773H145.57V63.6136Z" fill="black"/>
<path d="M156.497 63.6136H151.034V69.0773H156.497V63.6136Z" fill="black"/>
<path d="M167.425 63.6136H161.961V69.0773H167.425V63.6136Z" fill="black"/>
<path d="M183.816 63.6136H178.352V69.0773H183.816V63.6136Z" fill="black"/>
<path d="M205.671 63.6136H200.207V69.0773H205.671V63.6136Z" fill="black"/>
<path d="M19.9037 69.0773H14.4399V74.5411H19.9037V69.0773Z" fill="black"/>
<path d="M30.8312 69.0773H25.3674V74.5411H30.8312V69.0773Z" fill="black"/>
<path d="M36.2949 69.0773H30.8312V74.5411H36.2949V69.0773Z" fill="black"/>
<path d="M41.7587 69.0773H36.2949V74.5411H41.7587V69.0773Z" fill="black"/>
<path d="M52.6862 69.0773H47.2224V74.5411H52.6862V69.0773Z" fill="black"/>
<path d="M58.1499 69.0773H52.6862V74.5411H58.1499V69.0773Z" fill="black"/>
<path d="M69.0774 69.0773H63.6137V74.5411H69.0774V69.0773Z" fill="black"/>
<path d="M80.0049 69.0773H74.5412V74.5411H80.0049V69.0773Z" fill="black"/>
<path d="M96.3962 69.0773H90.9324V74.5411H96.3962V69.0773Z" fill="black"/>
<path d="M112.787 69.0773H107.324V74.5411H112.787V69.0773Z" fill="black"/>
<path d="M134.642 69.0773H129.179V74.5411H134.642V69.0773Z" fill="black"/>
<path d="M140.106 69.0773H134.642V74.5411H140.106V69.0773Z" fill="black"/>
<path d="M151.034 69.0773H145.57V74.5411H151.034V69.0773Z" fill="black"/>
<path d="M167.425 69.0773H161.961V74.5411H167.425V69.0773Z" fill="black"/>
<path d="M178.352 69.0773H172.889V74.5411H178.352V69.0773Z" fill="black"/>
<path d="M183.816 69.0773H178.352V74.5411H183.816V69.0773Z" fill="black"/>
<path d="M194.744 69.0773H189.28V74.5411H194.744V69.0773Z" fill="black"/>
<path d="M200.207 69.0773H194.744V74.5411H200.207V69.0773Z" fill="black"/>
<path d="M205.671 69.0773H200.207V74.5411H205.671V69.0773Z" fill="black"/>
<path d="M19.9037 74.5411H14.4399V80.0048H19.9037V74.5411Z" fill="black"/>
<path d="M30.8312 74.5411H25.3674V80.0048H30.8312V74.5411Z" fill="black"/>
<path d="M36.2949 74.5411H30.8312V80.0048H36.2949V74.5411Z" fill="black"/>
<path d="M41.7587 74.5411H36.2949V80.0048H41.7587V74.5411Z" fill="black"/>
<path d="M63.6137 74.5411H58.1499V80.0048H63.6137V74.5411Z" fill="black"/>
<path d="M107.324 74.5411H101.86V80.0048H107.324V74.5411Z" fill="black"/>
<path d="M118.251 74.5411H112.787L112.787 80.0048H118.251V74.5411Z" fill="black"/>
<path d="M140.106 74.5411H134.642V80.0048H140.106V74.5411Z" fill="black"/>
<path d="M145.57 74.5411H140.106V80.0048H145.57V74.5411Z" fill="black"/>
<path d="M151.034 74.5411H145.57V80.0048H151.034V74.5411Z" fill="black"/>
<path d="M156.497 74.5411H151.034V80.0048H156.497V74.5411Z" fill="black"/>
<path d="M183.816 74.5411H178.352V80.0048H183.816V74.5411Z" fill="black"/>
<path d="M194.744 74.5411H189.28V80.0048H194.744V74.5411Z" fill="black"/>
<path d="M205.671 74.5411H200.207V80.0048H205.671V74.5411Z" fill="black"/>
<path d="M211.135 74.5411H205.671V80.0048H211.135V74.5411Z" fill="black"/>
<path d="M19.9037 80.0048H14.4399V85.4686H19.9037V80.0048Z" fill="black"/>
<path d="M36.2949 80.0048H30.8312V85.4686H36.2949V80.0048Z" fill="black"/>
<path d="M41.7587 80.0048H36.2949V85.4686H41.7587V80.0048Z" fill="black"/>
<path d="M52.6862 80.0048H47.2224V85.4686H52.6862V80.0048Z" fill="black"/>
<path d="M69.0774 80.0048L63.6137 80.0048V85.4686H69.0774V80.0048Z" fill="black"/>
<path d="M85.4687 80.0048H80.0049V85.4686H85.4687V80.0048Z" fill="black"/>
<path d="M101.86 80.0048L96.3962 80.0048V85.4686H101.86L101.86 80.0048Z" fill="black"/>
<path d="M107.324 80.0048H101.86L101.86 85.4686H107.324V80.0048Z" fill="black"/>
<path d="M112.787 80.0048H107.324V85.4686H112.787L112.787 80.0048Z" fill="black"/>
<path d="M123.715 80.0048L118.251 80.0048V85.4686H123.715V80.0048Z" fill="black"/>
<path d="M151.034 80.0048H145.57V85.4686H151.034V80.0048Z" fill="black"/>
<path d="M161.961 80.0048L156.497 80.0048V85.4686H161.961V80.0048Z" fill="black"/>
<path d="M172.889 80.0048H167.425V85.4686H172.889V80.0048Z" fill="black"/>
<path d="M178.352 80.0048L172.889 80.0048V85.4686H178.352V80.0048Z" fill="black"/>
<path d="M183.816 80.0048H178.352V85.4686H183.816V80.0048Z" fill="black"/>
<path d="M189.28 80.0048H183.816V85.4686H189.28V80.0048Z" fill="black"/>
<path d="M200.207 80.0048H194.744V85.4686H200.207V80.0048Z" fill="black"/>
<path d="M205.671 80.0048H200.207V85.4686H205.671V80.0048Z" fill="black"/>
<path d="M211.135 80.0048H205.671V85.4686H211.135V80.0048Z" fill="black"/>
<path d="M19.9037 85.4686H14.4399V90.9323H19.9037V85.4686Z" fill="black"/>
<path d="M47.2224 85.4686H41.7587V90.9323H47.2224V85.4686Z" fill="black"/>
<path d="M58.1499 85.4686L52.6862 85.4686V90.9323H58.1499V85.4686Z" fill="black"/>
<path d="M63.6137 85.4686L58.1499 85.4686V90.9323H63.6137V85.4686Z" fill="black"/>
<path d="M69.0774 85.4686H63.6137V90.9323H69.0774V85.4686Z" fill="black"/>
<path d="M85.4687 85.4686H80.0049V90.9323H85.4687V85.4686Z" fill="black"/>
<path d="M96.3962 85.4686L90.9324 85.4686V90.9323H96.3962L96.3962 85.4686Z" fill="black"/>
<path d="M101.86 85.4686H96.3962L96.3962 90.9323H101.86V85.4686Z" fill="black"/>
<path d="M107.324 85.4686H101.86V90.9323H107.324V85.4686Z" fill="black"/>
<path d="M112.787 85.4686H107.324V90.9323H112.787V85.4686Z" fill="black"/>
<path d="M118.251 85.4686H112.787V90.9323H118.251V85.4686Z" fill="black"/>
<path d="M140.106 85.4686H134.642V90.9323H140.106V85.4686Z" fill="black"/>
<path d="M145.57 85.4686L140.106 85.4686V90.9323H145.57V85.4686Z" fill="black"/>
<path d="M156.497 85.4686H151.034V90.9323H156.497V85.4686Z" fill="black"/>
<path d="M161.961 85.4686H156.497V90.9323H161.961V85.4686Z" fill="black"/>
<path d="M194.744 85.4686H189.28V90.9323H194.744V85.4686Z" fill="black"/>
<path d="M200.207 85.4686H194.744V90.9323H200.207V85.4686Z" fill="black"/>
<path d="M211.135 85.4686H205.671V90.9323H211.135V85.4686Z" fill="black"/>
<path d="M216.599 85.4686L211.135 85.4686V90.9323H216.599V85.4686Z" fill="black"/>
<path d="M52.6862 90.9323H47.2224V96.3961H52.6862V90.9323Z" fill="black"/>
<path d="M63.6137 90.9323H58.1499V96.3961H63.6137V90.9323Z" fill="black"/>
<path d="M69.0774 90.9323H63.6137V96.3961H69.0774V90.9323Z" fill="black"/>
<path d="M74.5412 90.9323H69.0774V96.3961H74.5412V90.9323Z" fill="black"/>
<path d="M90.9324 90.9323H85.4687L85.4687 96.3961H90.9324V90.9323Z" fill="black"/>
<path d="M96.3962 90.9323H90.9324V96.3961H96.3962V90.9323Z" fill="black"/>
<path d="M118.251 90.9323H112.787L112.787 96.3961H118.251V90.9323Z" fill="black"/>
<path d="M123.715 90.9323H118.251V96.3961H123.715V90.9323Z" fill="black"/>
<path d="M140.106 90.9323H134.642V96.3961H140.106V90.9323Z" fill="black"/>
<path d="M156.497 90.9323H151.034V96.3961H156.497V90.9323Z" fill="black"/>
<path d="M161.961 90.9323H156.497V96.3961H161.961V90.9323Z" fill="black"/>
<path d="M172.889 90.9323H167.425V96.3961H172.889V90.9323Z" fill="black"/>
<path d="M194.744 90.9323H189.28V96.3961H194.744V90.9323Z" fill="black"/>
<path d="M216.599 90.9323H211.135V96.3961H216.599V90.9323Z" fill="black"/>
<path d="M19.9037 96.3961H14.4399V101.86H19.9037V96.3961Z" fill="black"/>
<path d="M25.3674 96.3961H19.9037V101.86H25.3674V96.3961Z" fill="black"/>
<path d="M36.2949 96.3961H30.8312V101.86H36.2949V96.3961Z" fill="black"/>
<path d="M47.2224 96.3961L41.7587 96.3961V101.86H47.2224V96.3961Z" fill="black"/>
<path d="M63.6137 96.3961H58.1499V101.86H63.6137V96.3961Z" fill="black"/>
<path d="M74.5412 96.3961H69.0774V101.86H74.5412V96.3961Z" fill="black"/>
<path d="M80.0049 96.3961L74.5412 96.3961V101.86H80.0049V96.3961Z" fill="black"/>
<path d="M90.9324 96.3961H85.4687V101.86H90.9324V96.3961Z" fill="black"/>
<path d="M96.3962 96.3961H90.9324V101.86H96.3962V96.3961Z" fill="black"/>
<path d="M101.86 96.3961L96.3962 96.3961V101.86H101.86V96.3961Z" fill="black"/>
<path d="M129.179 96.3961L123.715 96.3961V101.86H129.179V96.3961Z" fill="black"/>
<path d="M134.642 96.3961L129.179 96.3961V101.86H134.642V96.3961Z" fill="black"/>
<path d="M140.106 96.3961H134.642V101.86H140.106V96.3961Z" fill="black"/>
<path d="M161.961 96.3961H156.497V101.86H161.961V96.3961Z" fill="black"/>
<path d="M167.425 96.3961H161.961V101.86H167.425V96.3961Z" fill="black"/>
<path d="M178.352 96.3961L172.889 96.3961V101.86H178.352V96.3961Z" fill="black"/>
<path d="M183.816 96.3961H178.352V101.86H183.816V96.3961Z" fill="black"/>
<path d="M189.28 96.3961L183.816 96.3961V101.86H189.28V96.3961Z" fill="black"/>
<path d="M216.599 96.3961H211.135V101.86H216.599V96.3961Z" fill="black"/>
<path d="M19.9037 101.86H14.4399V107.324H19.9037V101.86Z" fill="black"/>
<path d="M25.3674 101.86H19.9037V107.324H25.3674V101.86Z" fill="black"/>
<path d="M30.8312 101.86H25.3674V107.324H30.8312V101.86Z" fill="black"/>
<path d="M52.6862 101.86L47.2224 101.86V107.324H52.6862V101.86Z" fill="black"/>
<path d="M58.1499 101.86L52.6862 101.86V107.324H58.1499V101.86Z" fill="black"/>
<path d="M63.6137 101.86H58.1499V107.324H63.6137V101.86Z" fill="black"/>
<path d="M80.0049 101.86H74.5412V107.324H80.0049V101.86Z" fill="black"/>
<path d="M96.3962 101.86H90.9324V107.324H96.3962V101.86Z" fill="black"/>
<path d="M101.86 101.86H96.3962V107.324H101.86V101.86Z" fill="black"/>
<path d="M112.787 101.86H107.324V107.324H112.787V101.86Z" fill="black"/>
<path d="M118.251 101.86H112.787V107.324H118.251V101.86Z" fill="black"/>
<path d="M145.57 101.86L140.106 101.86V107.324H145.57V101.86Z" fill="black"/>
<path d="M151.034 101.86H145.57V107.324H151.034V101.86Z" fill="black"/>
<path d="M167.425 101.86H161.961V107.324H167.425V101.86Z" fill="black"/>
<path d="M172.889 101.86H167.425V107.324H172.889V101.86Z" fill="black"/>
<path d="M178.352 101.86H172.889V107.324H178.352V101.86Z" fill="black"/>
<path d="M200.207 101.86H194.744V107.324H200.207V101.86Z" fill="black"/>
<path d="M205.671 101.86H200.207V107.324H205.671V101.86Z" fill="black"/>
<path d="M30.8312 107.324H25.3674V112.787H30.8312V107.324Z" fill="black"/>
<path d="M36.2949 107.324H30.8312V112.787H36.2949V107.324Z" fill="black"/>
<path d="M41.7587 107.324H36.2949V112.787H41.7587V107.324Z" fill="black"/>
<path d="M47.2224 107.324H41.7587V112.787H47.2224V107.324Z" fill="black"/>
<path d="M80.0049 107.324H74.5412V112.787H80.0049V107.324Z" fill="black"/>
<path d="M85.4687 107.324H80.0049V112.787H85.4687V107.324Z" fill="black"/>
<path d="M96.3962 107.324H90.9324V112.787H96.3962V107.324Z" fill="black"/>
<path d="M101.86 107.324H96.3962V112.787H101.86V107.324Z" fill="black"/>
<path d="M118.251 107.324H112.787L112.787 112.787H118.251V107.324Z" fill="black"/>
<path d="M123.715 107.324H118.251V112.787H123.715V107.324Z" fill="black"/>
<path d="M129.179 107.324H123.715V112.787H129.179V107.324Z" fill="black"/>
<path d="M134.642 107.324H129.179V112.787H134.642V107.324Z" fill="black"/>
<path d="M167.425 107.324H161.961V112.787H167.425V107.324Z" fill="black"/>
<path d="M172.889 107.324H167.425V112.787H172.889V107.324Z" fill="black"/>
<path d="M183.816 107.324H178.352V112.787H183.816V107.324Z" fill="black"/>
<path d="M189.28 107.324H183.816V112.787H189.28V107.324Z" fill="black"/>
<path d="M200.207 107.324H194.744V112.787H200.207V107.324Z" fill="black"/>
<path d="M205.671 107.324H200.207V112.787H205.671V107.324Z" fill="black"/>
<path d="M211.135 107.324H205.671V112.787H211.135V107.324Z" fill="black"/>
<path d="M216.599 107.324H211.135V112.787H216.599V107.324Z" fill="black"/>
<path d="M25.3674 112.787L19.9037 112.787V118.251H25.3674V112.787Z" fill="black"/>
<path d="M36.2949 112.787H30.8312V118.251H36.2949V112.787Z" fill="black"/>
<path d="M52.6862 112.787L47.2224 112.787V118.251H52.6862V112.787Z" fill="black"/>
<path d="M69.0774 112.787H63.6137V118.251H69.0774V112.787Z" fill="black"/>
<path d="M80.0049 112.787H74.5412V118.251H80.0049V112.787Z" fill="black"/>
<path d="M90.9324 112.787H85.4687L85.4687 118.251H90.9324V112.787Z" fill="black"/>
<path d="M101.86 112.787H96.3962L96.3962 118.251H101.86V112.787Z" fill="black"/>
<path d="M107.324 112.787L101.86 112.787V118.251H107.324V112.787Z" fill="black"/>
<path d="M118.251 112.787H112.787V118.251H118.251V112.787Z" fill="black"/>
<path d="M123.715 112.787H118.251V118.251H123.715V112.787Z" fill="black"/>
<path d="M140.106 112.787L134.642 112.787V118.251H140.106V112.787Z" fill="black"/>
<path d="M156.497 112.787H151.034V118.251H156.497V112.787Z" fill="black"/>
<path d="M178.352 112.787H172.889V118.251H178.352V112.787Z" fill="black"/>
<path d="M189.28 112.787H183.816V118.251H189.28V112.787Z" fill="black"/>
<path d="M194.744 112.787H189.28V118.251H194.744V112.787Z" fill="black"/>
<path d="M211.135 112.787H205.671V118.251H211.135V112.787Z" fill="black"/>
<path d="M19.9037 118.251H14.4399V123.715H19.9037V118.251Z" fill="black"/>
<path d="M25.3674 118.251H19.9037V123.715H25.3674V118.251Z" fill="black"/>
<path d="M47.2224 118.251H41.7587V123.715H47.2224V118.251Z" fill="black"/>
<path d="M58.1499 118.251H52.6862V123.715H58.1499V118.251Z" fill="black"/>
<path d="M63.6137 118.251H58.1499V123.715H63.6137V118.251Z" fill="black"/>
<path d="M69.0774 118.251H63.6137V123.715H69.0774V118.251Z" fill="black"/>
<path d="M74.5412 118.251H69.0774V123.715H74.5412V118.251Z" fill="black"/>
<path d="M80.0049 118.251H74.5412V123.715H80.0049V118.251Z" fill="black"/>
<path d="M90.9324 118.251H85.4687V123.715H90.9324V118.251Z" fill="black"/>
<path d="M107.324 118.251H101.86L101.86 123.715H107.324V118.251Z" fill="black"/>
<path d="M112.787 118.251H107.324V123.715H112.787L112.787 118.251Z" fill="black"/>
<path d="M129.179 118.251H123.715V123.715H129.179V118.251Z" fill="black"/>
<path d="M151.034 118.251H145.57V123.715H151.034V118.251Z" fill="black"/>
<path d="M156.497 118.251H151.034V123.715H156.497V118.251Z" fill="black"/>
<path d="M161.961 118.251H156.497V123.715H161.961V118.251Z" fill="black"/>
<path d="M167.425 118.251H161.961V123.715H167.425V118.251Z" fill="black"/>
<path d="M189.28 118.251H183.816V123.715H189.28V118.251Z" fill="black"/>
<path d="M194.744 118.251H189.28V123.715H194.744V118.251Z" fill="black"/>
<path d="M200.207 118.251H194.744V123.715H200.207V118.251Z" fill="black"/>
<path d="M216.599 118.251H211.135V123.715H216.599V118.251Z" fill="black"/>
<path d="M19.9037 123.715H14.4399V129.179H19.9037V123.715Z" fill="black"/>
<path d="M41.7587 123.715H36.2949V129.179H41.7587V123.715Z" fill="black"/>
<path d="M47.2224 123.715H41.7587V129.179H47.2224V123.715Z" fill="black"/>
<path d="M52.6862 123.715H47.2224V129.179H52.6862V123.715Z" fill="black"/>
<path d="M58.1499 123.715H52.6862V129.179H58.1499V123.715Z" fill="black"/>
<path d="M63.6137 123.715H58.1499V129.179H63.6137V123.715Z" fill="black"/>
<path d="M80.0049 123.715H74.5412V129.179H80.0049V123.715Z" fill="black"/>
<path d="M85.4687 123.715H80.0049V129.179H85.4687L85.4687 123.715Z" fill="black"/>
<path d="M112.787 123.715H107.324V129.179H112.787V123.715Z" fill="black"/>
<path d="M118.251 123.715H112.787V129.179H118.251V123.715Z" fill="black"/>
<path d="M129.179 123.715H123.715V129.179H129.179V123.715Z" fill="black"/>
<path d="M134.642 123.715H129.179V129.179H134.642V123.715Z" fill="black"/>
<path d="M145.57 123.715H140.106V129.179H145.57V123.715Z" fill="black"/>
<path d="M151.034 123.715H145.57V129.179H151.034V123.715Z" fill="black"/>
<path d="M167.425 123.715H161.961V129.179H167.425V123.715Z" fill="black"/>
<path d="M172.889 123.715H167.425V129.179H172.889V123.715Z" fill="black"/>
<path d="M200.207 123.715H194.744V129.179H200.207V123.715Z" fill="black"/>
<path d="M205.671 123.715H200.207V129.179H205.671V123.715Z" fill="black"/>
<path d="M19.9037 129.179H14.4399V134.642H19.9037V129.179Z" fill="black"/>
<path d="M30.8312 129.179H25.3674V134.642H30.8312V129.179Z" fill="black"/>
<path d="M41.7587 129.179H36.2949V134.642H41.7587V129.179Z" fill="black"/>
<path d="M58.1499 129.179H52.6862V134.642H58.1499V129.179Z" fill="black"/>
<path d="M74.5412 129.179H69.0774V134.642H74.5412V129.179Z" fill="black"/>
<path d="M80.0049 129.179H74.5412V134.642H80.0049V129.179Z" fill="black"/>
<path d="M90.9324 129.179H85.4687L85.4687 134.642H90.9324V129.179Z" fill="black"/>
<path d="M112.787 129.179H107.324V134.642H112.787V129.179Z" fill="black"/>
<path d="M123.715 129.179H118.251V134.642H123.715V129.179Z" fill="black"/>
<path d="M140.106 129.179H134.642V134.642H140.106V129.179Z" fill="black"/>
<path d="M145.57 129.179H140.106V134.642H145.57V129.179Z" fill="black"/>
<path d="M167.425 129.179H161.961V134.642H167.425V129.179Z" fill="black"/>
<path d="M172.889 129.179H167.425V134.642H172.889V129.179Z" fill="black"/>
<path d="M178.352 129.179H172.889V134.642H178.352V129.179Z" fill="black"/>
<path d="M200.207 129.179H194.744V134.642H200.207V129.179Z" fill="black"/>
<path d="M211.135 129.179H205.671V134.642H211.135V129.179Z" fill="black"/>
<path d="M216.599 129.179H211.135V134.642H216.599V129.179Z" fill="black"/>
<path d="M19.9037 134.642H14.4399V140.106H19.9037V134.642Z" fill="black"/>
<path d="M52.6862 134.642H47.2224V140.106H52.6862V134.642Z" fill="black"/>
<path d="M74.5412 134.642H69.0774V140.106H74.5412V134.642Z" fill="black"/>
<path d="M101.86 134.642H96.3962V140.106H101.86V134.642Z" fill="black"/>
<path d="M107.324 134.642H101.86V140.106H107.324V134.642Z" fill="black"/>
<path d="M118.251 134.642H112.787L112.787 140.106H118.251V134.642Z" fill="black"/>
<path d="M123.715 134.642H118.251V140.106H123.715V134.642Z" fill="black"/>
<path d="M129.179 134.642H123.715V140.106H129.179V134.642Z" fill="black"/>
<path d="M140.106 134.642H134.642V140.106H140.106V134.642Z" fill="black"/>
<path d="M156.497 134.642H151.034V140.106H156.497V134.642Z" fill="black"/>
<path d="M167.425 134.642H161.961V140.106H167.425V134.642Z" fill="black"/>
<path d="M172.889 134.642H167.425V140.106H172.889V134.642Z" fill="black"/>
<path d="M189.28 134.642H183.816V140.106H189.28V134.642Z" fill="black"/>
<path d="M194.744 134.642H189.28V140.106H194.744V134.642Z" fill="black"/>
<path d="M216.599 134.642H211.135V140.106H216.599V134.642Z" fill="black"/>
<path d="M19.9037 140.106H14.4399V145.57H19.9037V140.106Z" fill="black"/>
<path d="M30.8312 140.106H25.3674V145.57H30.8312V140.106Z" fill="black"/>
<path d="M36.2949 140.106H30.8312V145.57H36.2949V140.106Z" fill="black"/>
<path d="M41.7587 140.106H36.2949V145.57H41.7587V140.106Z" fill="black"/>
<path d="M58.1499 140.106H52.6862V145.57H58.1499V140.106Z" fill="black"/>
<path d="M63.6137 140.106H58.1499V145.57H63.6137V140.106Z" fill="black"/>
<path d="M69.0774 140.106H63.6137V145.57H69.0774V140.106Z" fill="black"/>
<path d="M74.5412 140.106H69.0774V145.57H74.5412V140.106Z" fill="black"/>
<path d="M80.0049 140.106H74.5412V145.57H80.0049V140.106Z" fill="black"/>
<path d="M85.4687 140.106H80.0049V145.57H85.4687V140.106Z" fill="black"/>
<path d="M90.9324 140.106H85.4687V145.57H90.9324V140.106Z" fill="black"/>
<path d="M96.3962 140.106H90.9324V145.57H96.3962L96.3962 140.106Z" fill="black"/>
<path d="M107.324 140.106H101.86L101.86 145.57H107.324V140.106Z" fill="black"/>
<path d="M112.787 140.106H107.324V145.57H112.787L112.787 140.106Z" fill="black"/>
<path d="M118.251 140.106H112.787L112.787 145.57H118.251V140.106Z" fill="black"/>
<path d="M134.642 140.106H129.179V145.57H134.642V140.106Z" fill="black"/>
<path d="M140.106 140.106H134.642V145.57H140.106V140.106Z" fill="black"/>
<path d="M151.034 140.106H145.57V145.57H151.034V140.106Z" fill="black"/>
<path d="M156.497 140.106H151.034V145.57H156.497V140.106Z" fill="black"/>
<path d="M161.961 140.106H156.497V145.57H161.961V140.106Z" fill="black"/>
<path d="M172.889 140.106H167.425V145.57H172.889V140.106Z" fill="black"/>
<path d="M178.352 140.106H172.889V145.57H178.352V140.106Z" fill="black"/>
<path d="M183.816 140.106H178.352V145.57H183.816V140.106Z" fill="black"/>
<path d="M189.28 140.106H183.816V145.57H189.28V140.106Z" fill="black"/>
<path d="M200.207 140.106H194.744V145.57H200.207V140.106Z" fill="black"/>
<path d="M205.671 140.106H200.207V145.57H205.671V140.106Z" fill="black"/>
<path d="M211.135 140.106H205.671V145.57H211.135V140.106Z" fill="black"/>
<path d="M216.599 140.106H211.135V145.57H216.599V140.106Z" fill="black"/>
<path d="M30.8312 145.57H25.3674V151.034H30.8312V145.57Z" fill="black"/>
<path d="M47.2224 145.57H41.7587V151.034H47.2224V145.57Z" fill="black"/>
<path d="M52.6862 145.57H47.2224V151.034H52.6862V145.57Z" fill="black"/>
<path d="M58.1499 145.57H52.6862V151.034H58.1499V145.57Z" fill="black"/>
<path d="M63.6137 145.57H58.1499V151.034H63.6137V145.57Z" fill="black"/>
<path d="M80.0049 145.57H74.5412V151.034H80.0049V145.57Z" fill="black"/>
<path d="M85.4687 145.57H80.0049V151.034H85.4687V145.57Z" fill="black"/>
<path d="M96.3962 145.57H90.9324V151.034H96.3962V145.57Z" fill="black"/>
<path d="M101.86 145.57H96.3962V151.034H101.86L101.86 145.57Z" fill="black"/>
<path d="M107.324 145.57H101.86L101.86 151.034H107.324V145.57Z" fill="black"/>
<path d="M118.251 145.57H112.787L112.787 151.034H118.251V145.57Z" fill="black"/>
<path d="M129.179 145.57H123.715V151.034H129.179V145.57Z" fill="black"/>
<path d="M145.57 145.57H140.106V151.034H145.57V145.57Z" fill="black"/>
<path d="M167.425 145.57H161.961V151.034H167.425V145.57Z" fill="black"/>
<path d="M172.889 145.57H167.425V151.034H172.889V145.57Z" fill="black"/>
<path d="M183.816 145.57H178.352V151.034H183.816V145.57Z" fill="black"/>
<path d="M194.744 145.57H189.28V151.034H194.744V145.57Z" fill="black"/>
<path d="M205.671 145.57H200.207V151.034H205.671V145.57Z" fill="black"/>
<path d="M216.599 145.57H211.135V151.034H216.599V145.57Z" fill="black"/>
<path d="M19.9037 151.034H14.4399V156.497H19.9037V151.034Z" fill="black"/>
<path d="M36.2949 151.034H30.8312V156.497H36.2949V151.034Z" fill="black"/>
<path d="M41.7587 151.034H36.2949V156.497H41.7587V151.034Z" fill="black"/>
<path d="M47.2224 151.034H41.7587V156.497H47.2224V151.034Z" fill="black"/>
<path d="M69.0774 151.034H63.6137V156.497H69.0774V151.034Z" fill="black"/>
<path d="M90.9324 151.034H85.4687L85.4687 156.497H90.9324V151.034Z" fill="black"/>
<path d="M96.3962 151.034H90.9324V156.497H96.3962V151.034Z" fill="black"/>
<path d="M118.251 151.034H112.787V156.497H118.251V151.034Z" fill="black"/>
<path d="M134.642 151.034H129.179V156.497H134.642V151.034Z" fill="black"/>
<path d="M151.034 151.034H145.57V156.497H151.034V151.034Z" fill="black"/>
<path d="M156.497 151.034H151.034V156.497H156.497V151.034Z" fill="black"/>
<path d="M172.889 151.034H167.425V156.497H172.889V151.034Z" fill="black"/>
<path d="M178.352 151.034H172.889V156.497H178.352V151.034Z" fill="black"/>
<path d="M19.9037 156.497H14.4399V161.961H19.9037V156.497Z" fill="black"/>
<path d="M25.3674 156.497H19.9037V161.961H25.3674V156.497Z" fill="black"/>
<path d="M30.8312 156.497H25.3674V161.961H30.8312V156.497Z" fill="black"/>
<path d="M36.2949 156.497H30.8312V161.961H36.2949V156.497Z" fill="black"/>
<path d="M41.7587 156.497H36.2949V161.961H41.7587V156.497Z" fill="black"/>
<path d="M52.6862 156.497H47.2224V161.961H52.6862V156.497Z" fill="black"/>
<path d="M58.1499 156.497H52.6862V161.961H58.1499V156.497Z" fill="black"/>
<path d="M80.0049 156.497H74.5412V161.961H80.0049V156.497Z" fill="black"/>
<path d="M90.9324 156.497H85.4687V161.961H90.9324V156.497Z" fill="black"/>
<path d="M96.3962 156.497H90.9324V161.961H96.3962V156.497Z" fill="black"/>
<path d="M101.86 156.497H96.3962V161.961H101.86V156.497Z" fill="black"/>
<path d="M107.324 156.497H101.86V161.961H107.324V156.497Z" fill="black"/>
<path d="M112.787 156.497H107.324V161.961H112.787L112.787 156.497Z" fill="black"/>
<path d="M118.251 156.497H112.787L112.787 161.961H118.251V156.497Z" fill="black"/>
<path d="M129.179 156.497H123.715V161.961H129.179V156.497Z" fill="black"/>
<path d="M134.642 156.497H129.179V161.961H134.642V156.497Z" fill="black"/>
<path d="M156.497 156.497H151.034V161.961H156.497V156.497Z" fill="black"/>
<path d="M178.352 156.497H172.889V161.961H178.352V156.497Z" fill="black"/>
<path d="M189.28 156.497H183.816V161.961H189.28V156.497Z" fill="black"/>
<path d="M200.207 156.497H194.744V161.961H200.207V156.497Z" fill="black"/>
<path d="M205.671 156.497H200.207V161.961H205.671V156.497Z" fill="black"/>
<path d="M211.135 156.497H205.671V161.961H211.135V156.497Z" fill="black"/>
<path d="M19.9037 161.961H14.4399V167.425H19.9037V161.961Z" fill="black"/>
<path d="M36.2949 161.961H30.8312V167.425H36.2949V161.961Z" fill="black"/>
<path d="M58.1499 161.961H52.6862V167.425H58.1499V161.961Z" fill="black"/>
<path d="M69.0774 161.961H63.6137V167.425H69.0774V161.961Z" fill="black"/>
<path d="M74.5412 161.961H69.0774V167.425H74.5412V161.961Z" fill="black"/>
<path d="M80.0049 161.961H74.5412V167.425H80.0049V161.961Z" fill="black"/>
<path d="M90.9324 161.961H85.4687V167.425H90.9324V161.961Z" fill="black"/>
<path d="M96.3962 161.961H90.9324V167.425H96.3962V161.961Z" fill="black"/>
<path d="M112.787 161.961H107.324V167.425H112.787V161.961Z" fill="black"/>
<path d="M118.251 161.961H112.787V167.425H118.251V161.961Z" fill="black"/>
<path d="M129.179 161.961H123.715V167.425H129.179V161.961Z" fill="black"/>
<path d="M134.642 161.961H129.179V167.425H134.642V161.961Z" fill="black"/>
<path d="M140.106 161.961H134.642V167.425H140.106V161.961Z" fill="black"/>
<path d="M151.034 161.961H145.57V167.425H151.034V161.961Z" fill="black"/>
<path d="M156.497 161.961H151.034V167.425H156.497V161.961Z" fill="black"/>
<path d="M161.961 161.961H156.497V167.425H161.961V161.961Z" fill="black"/>
<path d="M167.425 161.961H161.961V167.425H167.425V161.961Z" fill="black"/>
<path d="M205.671 161.961H200.207V167.425H205.671V161.961Z" fill="black"/>
<path d="M211.135 161.961H205.671V167.425H211.135V161.961Z" fill="black"/>
<path d="M216.599 161.961H211.135V167.425H216.599V161.961Z" fill="black"/>
<path d="M19.9037 167.425H14.4399V172.889H19.9037V167.425Z" fill="black"/>
<path d="M30.8312 167.425H25.3674V172.889H30.8312V167.425Z" fill="black"/>
<path d="M41.7587 167.425H36.2949V172.889H41.7587V167.425Z" fill="black"/>
<path d="M52.6862 167.425H47.2224V172.889H52.6862V167.425Z" fill="black"/>
<path d="M58.1499 167.425H52.6862V172.889H58.1499V167.425Z" fill="black"/>
<path d="M63.6137 167.425H58.1499V172.889H63.6137V167.425Z" fill="black"/>
<path d="M69.0774 167.425H63.6137V172.889H69.0774V167.425Z" fill="black"/>
<path d="M74.5412 167.425H69.0774V172.889H74.5412V167.425Z" fill="black"/>
<path d="M96.3962 167.425H90.9324V172.889H96.3962V167.425Z" fill="black"/>
<path d="M112.787 167.425H107.324V172.889H112.787V167.425Z" fill="black"/>
<path d="M118.251 167.425H112.787V172.889H118.251V167.425Z" fill="black"/>
<path d="M134.642 167.425H129.179V172.889H134.642V167.425Z" fill="black"/>
<path d="M156.497 167.425H151.034V172.889H156.497V167.425Z" fill="black"/>
<path d="M167.425 167.425H161.961V172.889H167.425V167.425Z" fill="black"/>
<path d="M172.889 167.425H167.425V172.889H172.889V167.425Z" fill="black"/>
<path d="M178.352 167.425H172.889V172.889H178.352V167.425Z" fill="black"/>
<path d="M183.816 167.425H178.352V172.889H183.816V167.425Z" fill="black"/>
<path d="M189.28 167.425H183.816V172.889H189.28V167.425Z" fill="black"/>
<path d="M194.744 167.425H189.28V172.889H194.744V167.425Z" fill="black"/>
<path d="M205.671 167.425H200.207V172.889H205.671V167.425Z" fill="black"/>
<path d="M211.135 167.425H205.671V172.889H211.135V167.425Z" fill="black"/>
<path d="M63.6137 172.889H58.1499V178.352H63.6137V172.889Z" fill="black"/>
<path d="M69.0774 172.889H63.6137V178.352H69.0774V172.889Z" fill="black"/>
<path d="M80.0049 172.889H74.5412V178.352H80.0049V172.889Z" fill="black"/>
<path d="M85.4687 172.889H80.0049V178.352H85.4687V172.889Z" fill="black"/>
<path d="M129.179 172.889H123.715V178.352H129.179V172.889Z" fill="black"/>
<path d="M134.642 172.889H129.179V178.352H134.642V172.889Z" fill="black"/>
<path d="M140.106 172.889H134.642V178.352H140.106V172.889Z" fill="black"/>
<path d="M167.425 172.889H161.961V178.352H167.425V172.889Z" fill="black"/>
<path d="M172.889 172.889H167.425V178.352H172.889V172.889Z" fill="black"/>
<path d="M194.744 172.889H189.28V178.352H194.744V172.889Z" fill="black"/>
<path d="M205.671 172.889H200.207V178.352H205.671V172.889Z" fill="black"/>
<path d="M211.135 172.889H205.671V178.352H211.135V172.889Z" fill="black"/>
<path d="M19.9037 178.352H14.4399V183.816H19.9037V178.352Z" fill="black"/>
<path d="M25.3674 178.352H19.9037V183.816H25.3674V178.352Z" fill="black"/>
<path d="M30.8312 178.352H25.3674V183.816H30.8312V178.352Z" fill="black"/>
<path d="M36.2949 178.352H30.8312V183.816H36.2949V178.352Z" fill="black"/>
<path d="M41.7587 178.352H36.2949V183.816H41.7587V178.352Z" fill="black"/>
<path d="M47.2224 178.352H41.7587V183.816H47.2224V178.352Z" fill="black"/>
<path d="M52.6862 178.352H47.2224V183.816H52.6862V178.352Z" fill="black"/>
<path d="M63.6137 178.352H58.1499V183.816H63.6137V178.352Z" fill="black"/>
<path d="M69.0774 178.352H63.6137V183.816H69.0774V178.352Z" fill="black"/>
<path d="M74.5412 178.352H69.0774V183.816H74.5412V178.352Z" fill="black"/>
<path d="M85.4687 178.352H80.0049L80.0049 183.816H85.4687V178.352Z" fill="black"/>
<path d="M107.324 178.352H101.86V183.816H107.324V178.352Z" fill="black"/>
<path d="M118.251 178.352H112.787V183.816H118.251V178.352Z" fill="black"/>
<path d="M123.715 178.352H118.251V183.816H123.715V178.352Z" fill="black"/>
<path d="M129.179 178.352H123.715V183.816H129.179V178.352Z" fill="black"/>
<path d="M140.106 178.352H134.642V183.816H140.106V178.352Z" fill="black"/>
<path d="M151.034 178.352H145.57V183.816H151.034V178.352Z" fill="black"/>
<path d="M156.497 178.352H151.034V183.816H156.497V178.352Z" fill="black"/>
<path d="M172.889 178.352H167.425V183.816H172.889V178.352Z" fill="black"/>
<path d="M183.816 178.352H178.352V183.816H183.816V178.352Z" fill="black"/>
<path d="M194.744 178.352H189.28V183.816H194.744V178.352Z" fill="black"/>
<path d="M200.207 178.352H194.744V183.816H200.207V178.352Z" fill="black"/>
<path d="M205.671 178.352H200.207V183.816H205.671V178.352Z" fill="black"/>
<path d="M211.135 178.352H205.671V183.816H211.135V178.352Z" fill="black"/>
<path d="M19.9037 183.816H14.4399V189.28H19.9037V183.816Z" fill="black"/>
<path d="M52.6862 183.816H47.2224V189.28H52.6862V183.816Z" fill="black"/>
<path d="M63.6137 183.816H58.1499V189.28H63.6137V183.816Z" fill="black"/>
<path d="M85.4687 183.816H80.0049V189.28H85.4687V183.816Z" fill="black"/>
<path d="M107.324 183.816H101.86V189.28H107.324V183.816Z" fill="black"/>
<path d="M129.179 183.816H123.715V189.28H129.179V183.816Z" fill="black"/>
<path d="M134.642 183.816H129.179V189.28H134.642V183.816Z" fill="black"/>
<path d="M140.106 183.816H134.642V189.28H140.106V183.816Z" fill="black"/>
<path d="M145.57 183.816H140.106V189.28H145.57V183.816Z" fill="black"/>
<path d="M151.034 183.816H145.57V189.28H151.034V183.816Z" fill="black"/>
<path d="M156.497 183.816H151.034V189.28H156.497V183.816Z" fill="black"/>
<path d="M161.961 183.816H156.497V189.28H161.961V183.816Z" fill="black"/>
<path d="M172.889 183.816H167.425V189.28H172.889V183.816Z" fill="black"/>
<path d="M194.744 183.816H189.28V189.28H194.744V183.816Z" fill="black"/>
<path d="M200.207 183.816H194.744V189.28H200.207V183.816Z" fill="black"/>
<path d="M205.671 183.816H200.207V189.28H205.671V183.816Z" fill="black"/>
<path d="M19.9037 189.28H14.4399V194.744H19.9037V189.28Z" fill="black"/>
<path d="M30.8312 189.28H25.3674V194.744H30.8312V189.28Z" fill="black"/>
<path d="M36.2949 189.28H30.8312V194.744H36.2949V189.28Z" fill="black"/>
<path d="M41.7587 189.28H36.2949V194.744H41.7587V189.28Z" fill="black"/>
<path d="M52.6862 189.28H47.2224V194.744H52.6862V189.28Z" fill="black"/>
<path d="M63.6137 189.28H58.1499V194.744H63.6137V189.28Z" fill="black"/>
<path d="M69.0774 189.28H63.6137V194.744H69.0774V189.28Z" fill="black"/>
<path d="M74.5412 189.28H69.0774V194.744H74.5412V189.28Z" fill="black"/>
<path d="M80.0049 189.28H74.5412V194.744H80.0049L80.0049 189.28Z" fill="black"/>
<path d="M85.4687 189.28H80.0049L80.0049 194.744H85.4687V189.28Z" fill="black"/>
<path d="M90.9324 189.28H85.4687V194.744H90.9324V189.28Z" fill="black"/>
<path d="M107.324 189.28H101.86V194.744H107.324V189.28Z" fill="black"/>
<path d="M112.787 189.28H107.324V194.744H112.787V189.28Z" fill="black"/>
<path d="M134.642 189.28H129.179V194.744H134.642V189.28Z" fill="black"/>
<path d="M140.106 189.28H134.642V194.744H140.106V189.28Z" fill="black"/>
<path d="M156.497 189.28H151.034V194.744H156.497V189.28Z" fill="black"/>
<path d="M161.961 189.28H156.497V194.744H161.961V189.28Z" fill="black"/>
<path d="M172.889 189.28H167.425V194.744H172.889V189.28Z" fill="black"/>
<path d="M178.352 189.28H172.889V194.744H178.352V189.28Z" fill="black"/>
<path d="M183.816 189.28H178.352V194.744H183.816V189.28Z" fill="black"/>
<path d="M189.28 189.28H183.816V194.744H189.28V189.28Z" fill="black"/>
<path d="M194.744 189.28H189.28V194.744H194.744V189.28Z" fill="black"/>
<path d="M211.135 189.28H205.671V194.744H211.135V189.28Z" fill="black"/>
<path d="M19.9037 194.744H14.4399V200.207H19.9037V194.744Z" fill="black"/>
<path d="M30.8312 194.744H25.3674V200.207H30.8312V194.744Z" fill="black"/>
<path d="M36.2949 194.744H30.8312V200.207H36.2949V194.744Z" fill="black"/>
<path d="M41.7587 194.744H36.2949V200.207H41.7587V194.744Z" fill="black"/>
<path d="M52.6862 194.744H47.2224V200.207H52.6862V194.744Z" fill="black"/>
<path d="M63.6137 194.744H58.1499V200.207H63.6137V194.744Z" fill="black"/>
<path d="M74.5412 194.744H69.0774V200.207H74.5412V194.744Z" fill="black"/>
<path d="M80.0049 194.744H74.5412V200.207H80.0049V194.744Z" fill="black"/>
<path d="M85.4687 194.744H80.0049V200.207H85.4687V194.744Z" fill="black"/>
<path d="M96.3962 194.744H90.9324V200.207H96.3962V194.744Z" fill="black"/>
<path d="M112.787 194.744H107.324V200.207H112.787V194.744Z" fill="black"/>
<path d="M118.251 194.744H112.787V200.207H118.251V194.744Z" fill="black"/>
<path d="M123.715 194.744H118.251V200.207H123.715V194.744Z" fill="black"/>
<path d="M129.179 194.744H123.715V200.207H129.179V194.744Z" fill="black"/>
<path d="M156.497 194.744H151.034V200.207H156.497V194.744Z" fill="black"/>
<path d="M167.425 194.744H161.961V200.207H167.425V194.744Z" fill="black"/>
<path d="M172.889 194.744H167.425V200.207H172.889V194.744Z" fill="black"/>
<path d="M211.135 194.744H205.671V200.207H211.135V194.744Z" fill="black"/>
<path d="M216.599 194.744H211.135V200.207H216.599V194.744Z" fill="black"/>
<path d="M19.9037 200.207H14.4399V205.671H19.9037V200.207Z" fill="black"/>
<path d="M30.8312 200.207H25.3674V205.671H30.8312V200.207Z" fill="black"/>
<path d="M36.2949 200.207H30.8312V205.671H36.2949V200.207Z" fill="black"/>
<path d="M41.7587 200.207H36.2949V205.671H41.7587V200.207Z" fill="black"/>
<path d="M52.6862 200.207H47.2224V205.671H52.6862V200.207Z" fill="black"/>
<path d="M74.5412 200.207H69.0774V205.671H74.5412V200.207Z" fill="black"/>
<path d="M80.0049 200.207H74.5412V205.671H80.0049V200.207Z" fill="black"/>
<path d="M85.4687 200.207H80.0049V205.671H85.4687V200.207Z" fill="black"/>
<path d="M101.86 200.207H96.3962L96.3962 205.671H101.86V200.207Z" fill="black"/>
<path d="M107.324 200.207H101.86V205.671H107.324V200.207Z" fill="black"/>
<path d="M118.251 200.207H112.787L112.787 205.671H118.251V200.207Z" fill="black"/>
<path d="M123.715 200.207H118.251V205.671H123.715V200.207Z" fill="black"/>
<path d="M129.179 200.207H123.715V205.671H129.179V200.207Z" fill="black"/>
<path d="M134.642 200.207H129.179V205.671H134.642V200.207Z" fill="black"/>
<path d="M145.57 200.207H140.106V205.671H145.57V200.207Z" fill="black"/>
<path d="M151.034 200.207H145.57V205.671H151.034V200.207Z" fill="black"/>
<path d="M167.425 200.207H161.961V205.671H167.425V200.207Z" fill="black"/>
<path d="M172.889 200.207H167.425V205.671H172.889V200.207Z" fill="black"/>
<path d="M178.352 200.207H172.889V205.671H178.352V200.207Z" fill="black"/>
<path d="M183.816 200.207H178.352V205.671H183.816V200.207Z" fill="black"/>
<path d="M189.28 200.207H183.816V205.671H189.28V200.207Z" fill="black"/>
<path d="M194.744 200.207H189.28V205.671H194.744V200.207Z" fill="black"/>
<path d="M200.207 200.207H194.744V205.671H200.207V200.207Z" fill="black"/>
<path d="M205.671 200.207H200.207V205.671H205.671V200.207Z" fill="black"/>
<path d="M211.135 200.207H205.671V205.671H211.135V200.207Z" fill="black"/>
<path d="M216.599 200.207H211.135V205.671H216.599V200.207Z" fill="black"/>
<path d="M19.9037 205.671H14.4399V211.135H19.9037V205.671Z" fill="black"/>
<path d="M52.6862 205.671H47.2224V211.135H52.6862V205.671Z" fill="black"/>
<path d="M69.0774 205.671H63.6137V211.135H69.0774V205.671Z" fill="black"/>
<path d="M96.3962 205.671H90.9324V211.135H96.3962L96.3962 205.671Z" fill="black"/>
<path d="M101.86 205.671H96.3962L96.3962 211.135H101.86V205.671Z" fill="black"/>
<path d="M107.324 205.671H101.86V211.135H107.324V205.671Z" fill="black"/>
<path d="M123.715 205.671H118.251V211.135H123.715V205.671Z" fill="black"/>
<path d="M156.497 205.671H151.034V211.135H156.497V205.671Z" fill="black"/>
<path d="M167.425 205.671H161.961V211.135H167.425V205.671Z" fill="black"/>
<path d="M172.889 205.671H167.425V211.135H172.889V205.671Z" fill="black"/>
<path d="M189.28 205.671H183.816V211.135H189.28V205.671Z" fill="black"/>
<path d="M211.135 205.671H205.671V211.135H211.135V205.671Z" fill="black"/>
<path d="M216.599 205.671H211.135V211.135H216.599V205.671Z" fill="black"/>
<path d="M19.9037 211.135H14.4399V216.599H19.9037V211.135Z" fill="black"/>
<path d="M25.3674 211.135H19.9037V216.599H25.3674V211.135Z" fill="black"/>
<path d="M30.8312 211.135H25.3674V216.599H30.8312V211.135Z" fill="black"/>
<path d="M36.2949 211.135H30.8312V216.599H36.2949V211.135Z" fill="black"/>
<path d="M41.7587 211.135H36.2949V216.599H41.7587V211.135Z" fill="black"/>
<path d="M47.2224 211.135H41.7587V216.599H47.2224V211.135Z" fill="black"/>
<path d="M52.6862 211.135H47.2224V216.599H52.6862V211.135Z" fill="black"/>
<path d="M63.6137 211.135H58.1499V216.599H63.6137V211.135Z" fill="black"/>
<path d="M85.4687 211.135H80.0049V216.599H85.4687V211.135Z" fill="black"/>
<path d="M101.86 211.135H96.3962L96.3962 216.599H101.86V211.135Z" fill="black"/>
<path d="M107.324 211.135H101.86V216.599H107.324V211.135Z" fill="black"/>
<path d="M129.179 211.135H123.715V216.599H129.179V211.135Z" fill="black"/>
<path d="M134.642 211.135H129.179V216.599H134.642V211.135Z" fill="black"/>
<path d="M151.034 211.135H145.57V216.599H151.034V211.135Z" fill="black"/>
<path d="M156.497 211.135H151.034V216.599H156.497V211.135Z" fill="black"/>
<path d="M172.889 211.135H167.425V216.599H172.889V211.135Z" fill="black"/>
<path d="M178.352 211.135H172.889V216.599H178.352V211.135Z" fill="black"/>
<path d="M200.207 211.135H194.744V216.599H200.207V211.135Z" fill="black"/>
<path d="M216.599 211.135H211.135V216.599H216.599V211.135Z" fill="black"/>
</g>
<defs>
<clipPath id="clip0_1_205">
<rect width="231.039" height="231.039" rx="9.02494" fill="white"/>
</clipPath>
</defs>
</svg>
