<svg width="190" height="70" viewBox="0 0 190 70" fill="none" xmlns="http://www.w3.org/2000/svg">
<rect x="0.25" y="0.532227" width="189.587" height="68.9967" rx="10.4146" fill="#090909"/>
<path d="M43.7064 36.0766C43.7438 33.1615 45.3033 30.4032 47.7771 28.8764C46.2165 26.6388 43.6024 25.2201 40.8828 25.1346C37.9821 24.829 35.1699 26.8772 33.6918 26.8772C32.185 26.8772 29.9092 25.165 27.4585 25.2156C24.2641 25.3192 21.2861 27.1425 19.7319 29.9461C16.3911 35.7528 18.8831 44.2866 22.0833 48.9802C23.6844 51.2786 25.5557 53.8459 28.0042 53.7548C30.4002 53.6551 31.295 52.221 34.1872 52.221C37.0526 52.221 37.8921 53.7548 40.3903 53.6969C42.9614 53.6551 44.5812 51.3884 46.1262 49.0683C47.2766 47.4306 48.1618 45.6207 48.7491 43.7054C45.7277 42.4225 43.7099 39.37 43.7064 36.0766Z" fill="white"/>
<path d="M38.9877 22.0479C40.3896 20.3584 41.0802 18.187 40.9129 15.9946C38.7713 16.2204 36.7929 17.248 35.3722 18.8726C33.9828 20.4599 33.2598 22.5932 33.3965 24.7018C35.539 24.7239 37.6452 23.7242 38.9877 22.0479Z" fill="white"/>
<path d="M129.166 33.0656V36.5981H126.961V38.9147H129.166V46.7859C129.166 49.4736 130.378 50.5487 133.425 50.5487C133.96 50.5487 134.47 50.4847 134.916 50.4079V48.117C134.534 48.1554 134.291 48.1809 133.871 48.1809C132.507 48.1809 131.907 47.541 131.907 46.082V38.9147H134.916V36.5981H131.907V33.0656H129.166Z" fill="white"/>
<path d="M142.678 50.7407C146.732 50.7407 149.219 48.0146 149.219 43.4966C149.219 39.0042 146.72 36.2653 142.678 36.2653C138.624 36.2653 136.125 39.0042 136.125 43.4966C136.125 48.0146 138.611 50.7407 142.678 50.7407ZM142.678 48.2961C140.294 48.2961 138.956 46.5427 138.956 43.4966C138.956 40.4761 140.294 38.7099 142.678 38.7099C145.05 38.7099 146.401 40.4761 146.401 43.4966C146.401 46.5299 145.05 48.2961 142.678 48.2961Z" fill="white"/>
<path d="M151.346 50.4719H154.087V42.2423C154.087 40.2841 155.553 38.9659 157.631 38.9659C158.115 38.9659 158.931 39.0554 159.161 39.1322V36.4189C158.867 36.3421 158.345 36.3037 157.937 36.3037C156.126 36.3037 154.584 37.302 154.189 38.6715H153.985V36.5341H151.346V50.4719Z" fill="white"/>
<path d="M165.967 38.6075C167.994 38.6075 169.32 40.0281 169.383 42.2167H162.371C162.524 40.0409 163.94 38.6075 165.967 38.6075ZM169.371 46.7091C168.861 47.797 167.726 48.3985 166.069 48.3985C163.876 48.3985 162.461 46.8499 162.371 44.4053V44.2517H172.175V43.2918C172.175 38.9147 169.842 36.2653 165.979 36.2653C162.065 36.2653 159.579 39.0938 159.579 43.5478C159.579 48.0018 162.014 50.7407 165.992 50.7407C169.167 50.7407 171.385 49.2048 172.01 46.7091H169.371Z" fill="white"/>
<path d="M111.191 45.3249C111.403 48.7474 114.244 50.9362 118.472 50.9362C122.991 50.9362 125.819 48.6413 125.819 44.98C125.819 42.1014 124.207 40.5095 120.296 39.5942L118.195 39.0768C115.71 38.4932 114.706 37.7105 114.706 36.3441C114.706 34.6196 116.265 33.4921 118.604 33.4921C120.824 33.4921 122.357 34.5931 122.634 36.3574H125.515C125.343 33.1339 122.515 30.8655 118.644 30.8655C114.481 30.8655 111.706 33.1339 111.706 36.5431C111.706 39.3554 113.279 41.0269 116.728 41.8361L119.186 42.433C121.709 43.03 122.819 43.9055 122.819 45.3647C122.819 47.0627 121.075 48.2964 118.697 48.2964C116.146 48.2964 114.376 47.1423 114.125 45.3249H111.191Z" fill="white"/>
<path d="M82.7968 36.3037C80.91 36.3037 79.2781 37.2508 78.4367 38.8379H78.2327V36.5341H75.5936V55.1051H78.3347V48.3601H78.5514C79.2781 49.832 80.8462 50.7023 82.8223 50.7023C86.3283 50.7023 88.5594 47.925 88.5594 43.4966C88.5594 39.0682 86.3283 36.3037 82.7968 36.3037ZM82.0191 48.2321C79.7243 48.2321 78.2837 46.4147 78.2837 43.5094C78.2837 40.5913 79.7243 38.7739 82.0319 38.7739C84.3522 38.7739 85.7418 40.5529 85.7418 43.4966C85.7418 46.4531 84.3522 48.2321 82.0191 48.2321Z" fill="white"/>
<path d="M98.1507 36.3037C96.2638 36.3037 94.632 37.2508 93.7905 38.8379H93.5865V36.5341H90.9475V55.1051H93.6885V48.3601H93.9053C94.632 49.832 96.2001 50.7023 98.1762 50.7023C101.682 50.7023 103.913 47.925 103.913 43.4966C103.913 39.0682 101.682 36.3037 98.1507 36.3037ZM97.373 48.2321C95.0782 48.2321 93.6375 46.4147 93.6375 43.5094C93.6375 40.5913 95.0782 38.7739 97.3857 38.7739C99.7061 38.7739 101.096 40.5529 101.096 43.4966C101.096 46.4531 99.7061 48.2321 97.373 48.2321Z" fill="white"/>
<path d="M70.6758 50.4719H73.8207L66.9362 31.3298H63.7517L56.8672 50.4719H59.9064L61.6639 45.3912H68.9315L70.6758 50.4719ZM65.192 34.8053H65.4166L68.1783 42.8973H62.417L65.192 34.8053Z" fill="white"/>
<path d="M56.791 17.8279V25.3943H59.5123C61.7582 25.3943 63.0588 24.0047 63.0588 21.5875C63.0588 19.2069 61.7478 17.8279 59.5123 17.8279H56.791ZM57.961 18.8975H59.3817C60.9434 18.8975 61.8679 19.8938 61.8679 21.6032C61.8679 23.3388 60.9591 24.3246 59.3817 24.3246H57.961V18.8975Z" fill="white"/>
<path d="M67.0419 25.5044C68.7029 25.5044 69.7214 24.3875 69.7214 22.5365C69.7214 20.6961 68.6977 19.5739 67.0419 19.5739C65.381 19.5739 64.3572 20.6961 64.3572 22.5365C64.3572 24.3875 65.3758 25.5044 67.0419 25.5044ZM67.0419 24.5029C66.0652 24.5029 65.5168 23.7845 65.5168 22.5365C65.5168 21.2991 66.0652 20.5755 67.0419 20.5755C68.0134 20.5755 68.5671 21.2991 68.5671 22.5365C68.5671 23.7793 68.0134 24.5029 67.0419 24.5029Z" fill="white"/>
<path d="M78.3949 19.6841H77.272L76.2587 24.0414H76.1699L74.9999 19.6841H73.9239L72.754 24.0414H72.6704L71.6519 19.6841H70.5132L72.0802 25.3943H73.2345L74.4045 21.189H74.4933L75.6685 25.3943H76.8332L78.3949 19.6841Z" fill="white"/>
<path d="M79.6882 25.3943H80.8112V22.0541C80.8112 21.1627 81.3387 20.6069 82.1692 20.6069C82.9997 20.6069 83.3966 21.0631 83.3966 21.9807V25.3943H84.5196V21.6976C84.5196 20.3395 83.8197 19.5739 82.5505 19.5739C81.6939 19.5739 81.1298 19.9567 80.853 20.5912H80.7694V19.6841H79.6882V25.3943Z" fill="white"/>
<path d="M86.2881 25.3943H87.4111V17.4556H86.2881V25.3943Z" fill="white"/>
<path d="M91.6345 25.5044C93.2955 25.5044 94.314 24.3875 94.314 22.5365C94.314 20.6961 93.2903 19.5739 91.6345 19.5739C89.9736 19.5739 88.9499 20.6961 88.9499 22.5365C88.9499 24.3875 89.9684 25.5044 91.6345 25.5044ZM91.6345 24.5029C90.6578 24.5029 90.1094 23.7845 90.1094 22.5365C90.1094 21.2991 90.6578 20.5755 91.6345 20.5755C92.6061 20.5755 93.1597 21.2991 93.1597 22.5365C93.1597 23.7793 92.6061 24.5029 91.6345 24.5029Z" fill="white"/>
<path d="M97.66 24.5396C97.0488 24.5396 96.6049 24.2407 96.6049 23.7268C96.6049 23.2234 96.9601 22.956 97.7435 22.9036L99.1329 22.8144V23.2916C99.1329 23.9995 98.5061 24.5396 97.66 24.5396ZM97.3727 25.4886C98.1196 25.4886 98.7411 25.1635 99.0806 24.592H99.1694V25.3943H100.251V21.4931C100.251 20.2871 99.4463 19.5739 98.0204 19.5739C96.7302 19.5739 95.811 20.2032 95.6961 21.1837H96.7825C96.9078 20.78 97.3413 20.5492 97.9681 20.5492C98.7359 20.5492 99.1329 20.8901 99.1329 21.4931V21.986L97.5921 22.0751C96.2393 22.159 95.4767 22.7515 95.4767 23.7793C95.4767 24.8227 96.2758 25.4886 97.3727 25.4886Z" fill="white"/>
<path d="M104.061 25.4886C104.845 25.4886 105.508 25.1164 105.848 24.4924H105.937V25.3943H107.013V17.4556H105.89V20.5912H105.806C105.498 19.962 104.84 19.5897 104.061 19.5897C102.625 19.5897 101.701 20.7328 101.701 22.5365C101.701 24.3456 102.615 25.4886 104.061 25.4886ZM104.38 20.6017C105.32 20.6017 105.91 21.3515 105.91 22.5418C105.91 23.7373 105.325 24.4766 104.38 24.4766C103.429 24.4766 102.86 23.7478 102.86 22.5365C102.86 21.3358 103.435 20.6017 104.38 20.6017Z" fill="white"/>
<path d="M114.295 25.5044C115.956 25.5044 116.974 24.3875 116.974 22.5365C116.974 20.6961 115.95 19.5739 114.295 19.5739C112.634 19.5739 111.61 20.6961 111.61 22.5365C111.61 24.3875 112.628 25.5044 114.295 25.5044ZM114.295 24.5029C113.318 24.5029 112.769 23.7845 112.769 22.5365C112.769 21.2991 113.318 20.5755 114.295 20.5755C115.266 20.5755 115.82 21.2991 115.82 22.5365C115.82 23.7793 115.266 24.5029 114.295 24.5029Z" fill="white"/>
<path d="M118.461 25.3943H119.584V22.0541C119.584 21.1627 120.111 20.6069 120.942 20.6069C121.772 20.6069 122.169 21.0631 122.169 21.9807V25.3943H123.292V21.6976C123.292 20.3395 122.592 19.5739 121.323 19.5739C120.466 19.5739 119.902 19.9567 119.625 20.5912H119.542V19.6841H118.461V25.3943Z" fill="white"/>
<path d="M128.464 18.2631V19.7103H127.56V20.6594H128.464V23.8841C128.464 24.9853 128.96 25.4257 130.208 25.4257C130.428 25.4257 130.637 25.3995 130.82 25.368V24.4295C130.663 24.4452 130.564 24.4557 130.391 24.4557C129.832 24.4557 129.587 24.1935 129.587 23.5957V20.6594H130.82V19.7103H129.587V18.2631H128.464Z" fill="white"/>
<path d="M132.327 25.3943H133.45V22.0594C133.45 21.1942 133.962 20.6122 134.881 20.6122C135.675 20.6122 136.098 21.0736 136.098 21.986V25.3943H137.221V21.7081C137.221 20.35 136.474 19.5792 135.262 19.5792C134.406 19.5792 133.805 19.962 133.528 20.6017H133.439V17.4556H132.327V25.3943Z" fill="white"/>
<path d="M141.272 20.5335C142.103 20.5335 142.646 21.1155 142.672 22.0122H139.799C139.862 21.1208 140.442 20.5335 141.272 20.5335ZM142.667 23.8527C142.458 24.2984 141.993 24.5448 141.314 24.5448C140.415 24.5448 139.836 23.9103 139.799 22.9088V22.8459H143.816V22.4526C143.816 20.6594 142.86 19.5739 141.277 19.5739C139.674 19.5739 138.655 20.7328 138.655 22.5575C138.655 24.3823 139.653 25.5044 141.283 25.5044C142.583 25.5044 143.492 24.8751 143.748 23.8527H142.667Z" fill="white"/>
</svg>
